# xmcd
#
# Track frame offsets:
#	182
#	17962
#	51324
#
# Disc length: 1200 seconds
#
# Revision: 0
# Processed by: cddbd v1.5.2PL0 Copyright (c) Steve Scherf et al.
# Submitted via: audiograbber 1.83.01
#
DISCID=2204ae03
DTITLE=Enigma - Voyageur
DYEAR=2003
DGENRE=
TTITLE0=Voyageur (Radio Edit)
TTITLE1=Voyageur (Chillout Mix)
TTITLE2=Daten-CD
EXTD=
EXTT0=
EXTT1=
EXTT2=
PLAYORDER=
